<svg xmlns="http://www.w3.org/2000/svg" version="1.1" viewBox="0 0 710 170" id="msf_logo_v_svg" preserveAspectRatio="xMinYMin meet" itemprop="logo">
<defs>
<style type="text/css"><![CDATA[
	path.msf_logo_green {
		fill: #02A64F;
	}
	path.msf_logo_blue {
		fill: #00AEEF;
	}
]]></style>
</defs>
<path class="msf_logo_green" d="M 34.447266,82.347656 C 19.074551,82.347656 3.9121094,92.209269 3.9121094,109.91797 3.9121094,121.47675 12.287796,127.73346 22.255859,129.64062 L 27.453125,130.59375 C 29.783234,131.12426 33.173828,131.44228 33.173828,134.73047 33.173828,138.1242 29.147104,139.18359 26.601562,139.18359 20.981488,139.18359 13.772212,137.59484 9.2128906,134.30664 8.3621066,133.77613 8.0449219,134.51758 8.0449219,134.51758 L 1.8984375,151.05859 C 1.4757725,152.43743 2.4257812,152.86133 2.4257812,152.86133 10.167358,156.78593 20.026504,159.11914 28.509766,159.11914 43.78161,159.11914 59.152322,150.31706 59.152344,132.60742 59.152344,119.98871 51.309187,113.83854 40.386719,111.29492 L 34.658203,109.91797 C 32.645774,109.38745 29.464844,108.96431 29.464844,106.20703 29.464844,103.13236 32.751254,102.28125 34.980469,102.28125 40.278773,102.28125 45.476702,103.23694 49.712891,106.09961 49.712891,106.09961 50.246588,106.41809 50.568359,105.88867 L 56.607422,89.453125 C 56.607422,89.453125 56.817786,88.923008 56.396484,88.605469 49.612038,84.363958 42.296555,82.347656 34.447266,82.347656 Z M 156.73242,84.574219 C 156.51564,84.574219 156.19961,84.786011 155.98828,85.105469 L 122.5918,155.08789 C 121.95235,156.04335 122.16395,156.46875 122.9043,156.46875 H 144.64453 C 146.12932,156.46875 146.23466,156.25414 146.76367,155.40625 148.14346,152.75664 149.30965,150.63564 150.68945,147.56055 H 177.19727 C 178.57707,150.63564 179.849,152.75664 181.12109,155.40625 181.65009,156.25414 181.75544,156.46875 183.24023,156.46875 H 204.87305 C 205.71839,156.46875 205.93301,156.04335 205.29492,155.08789 L 172.10547,85.421875 172,85.210938 171.89453,85 C 171.78961,84.786487 171.47002,84.574219 171.15234,84.574219 Z M 273.42969,84.574219 C 272.15761,84.574219 272.26367,84.678726 272.26367,85.634766 V 154.98242 C 272.26367,156.25536 272.37414,156.46875 273.53711,156.46875 H 327.29688 C 328.35763,156.46875 328.46484,156.25536 328.46484,154.98242 V 139.07812 C 328.46484,137.69984 328.46536,137.69922 327.29688,137.69922 H 296.75781 V 128.79297 H 325.59961 C 326.76671,128.79297 326.875,128.58016 326.875,127.41211 V 113.52148 C 326.875,112.24858 326.76668,112.03906 325.59961,112.03906 H 296.75781 V 102.70703 H 326.34375 C 327.40041,102.70703 327.61326,102.38799 327.61328,101.22266 V 86.058594 C 327.61328,84.679617 327.50678,84.574219 326.34375,84.574219 Z M 361.65234,84.574219 C 360.5875,84.574219 360.58789,84.679617 360.58789,86.058594 V 154.98242 C 360.58789,156.57437 360.69794,156.46875 361.65234,156.46875 H 384.44922 C 385.29455,156.46875 385.40039,156.14989 385.40039,154.98242 V 134.83594 H 410.2168 C 411.16848,134.83594 411.06445,134.7287 411.06445,133.77539 V 117.44727 C 411.06445,116.59731 411.16837,116.17188 410.2168,116.17188 H 385.40039 V 102.28125 H 413.07812 C 414.0298,102.28125 413.92578,102.17552 413.92578,101.32812 V 85.634766 C 413.92578,84.784801 414.02959,84.574219 413.07812,84.574219 Z M 443.71094,84.574219 C 443.49966,84.574219 443.18208,84.786011 442.9707,85.105469 L 409.57031,155.08789 C 408.93496,156.04335 409.14643,156.46875 409.88672,156.46875 H 431.625 C 433.11387,156.46875 433.21632,156.25414 433.74805,155.40625 435.12643,152.75664 436.2909,150.63564 437.66797,147.56055 H 464.17969 C 465.55807,150.63564 466.83031,152.75664 468.09961,155.40625 468.62732,156.25414 468.73794,156.46875 470.22266,156.46875 H 491.85547 C 492.70484,156.46875 492.91543,156.04335 492.27734,155.08789 L 459.08594,85.421875 458.98242,85.210938 458.87891,85 C 458.77311,84.786487 458.45327,84.574219 458.13281,84.574219 Z M 499.41602,84.574219 C 498.96795,84.594169 498.9668,84.734667 498.9668,85.53125 V 155.51367 C 498.9668,156.57459 498.96724,156.46875 500.0293,156.46875 H 523.46289 C 524.41859,156.46875 524.51953,156.36155 524.51953,155.51367 V 85.53125 C 524.51953,84.680609 524.41806,84.574219 523.46289,84.574219 H 500.0293 C 499.76381,84.574219 499.56546,84.567565 499.41602,84.574219 Z M 539.32422,84.630859 C 538.95272,84.651049 538.65039,84.788634 538.65039,85.585938 V 155.65234 C 538.65039,156.71753 538.65018,156.60156 539.71094,156.60156 H 562.10547 C 563.06533,156.60156 563.16797,156.49438 563.16797,155.65234 V 140.95898 L 563.14648,140.92188 V 134.05469 C 565.12073,134.05469 567.00215,134.01467 568.77734,133.93164 572.81038,140.64178 575.79548,148.64496 579.87891,154.76172 583.90104,160.8109 589.61647,165.95804 597.44531,167.92969 605.2605,169.89815 613.80399,167.91643 619.46094,164.71875 623.68072,162.345 627.64784,159.05946 632.16211,156.49609 636.55378,154.00142 641.52111,151.1168 647.3457,150.76367 655.18413,150.29288 661.48346,154.89862 669.51953,156.06445 673.60307,156.66096 676.68597,156.17428 680.10547,155.5 685.73645,154.40505 690.16834,151.71026 693.84961,148.72461 L 689.28125,148.49609 C 678.16927,148.02366 668.94578,140.92178 657.14258,141.89062 652.64456,142.26503 648.93062,143.8567 645.29297,145.56836 641.13853,147.51876 636.32392,150.1273 632.81445,152.35352 626.32309,155.69073 617.46246,158.05672 609.125,156.16602 605.28426,155.28989 601.03691,152.6957 598.36328,150.29688 592.63271,145.17337 588.9494,137.5736 584.66406,131.73633 588.53894,130.73884 591.55806,129.52656 593.86914,128.29688 593.86914,128.28772 593.85442,128.27118 593.8457,128.26367 594.24927,128.09542 594.59416,127.86639 594.97461,127.66992 596.78111,126.62021 598.09711,125.5528 599.03516,124.64258 602.40698,121.08796 604.25,115.76443 604.25,108.94141 604.25,95.883246 595.98023,84.630859 577.82617,84.630859 H 539.71094 C 539.5808,84.630859 539.44813,84.624129 539.32422,84.630859 Z M 65.40625,84.681641 C 64.555467,84.681641 64.554688,84.786824 64.554688,85.742188 V 103.66016 C 64.554688,104.29661 64.554294,104.4043 65.298828,104.4043 L 84.599609,104.29688 V 155.51367 C 84.599609,156.57459 84.598498,156.46875 85.65625,156.46875 H 108.66992 C 109.62569,156.46875 109.72852,156.36155 109.72852,155.51367 V 104.29688 L 128.38867,104.4043 C 129.02811,104.4043 129.13086,104.29661 129.13086,103.66016 V 85.742188 C 129.13086,84.786824 129.02743,84.681641 128.28711,84.681641 Z M 198.99805,84.681641 C 198.14864,84.681641 198.14844,84.786824 198.14844,85.742188 V 103.66016 C 198.14844,104.29661 198.14951,104.4043 198.89258,104.4043 L 218.19336,104.29688 V 155.51367 C 218.19336,156.57459 218.19334,156.46875 219.25,156.46875 H 242.26172 C 243.21748,156.46875 243.32422,156.36155 243.32422,155.51367 V 104.29688 L 261.98828,104.4043 C 262.62228,104.4043 262.72656,104.29661 262.72656,103.66016 V 85.742188 C 262.72656,84.786824 262.62124,84.681641 261.88086,84.681641 Z M 568.75781,95.078125 572.30664,106.04688 H 583.83203 L 574.50977,112.81836 578.07617,123.78906 568.75781,117.00781 559.42188,123.78906 562.99805,112.81836 553.66602,106.04688 H 565.18164 Z M 163.93945,105.10156 167.49805,116.05664 H 179.02344 L 169.70703,122.83203 173.26172,133.79492 163.93945,127.02539 154.62109,133.79492 158.17578,122.83203 148.85742,116.05664 H 160.37695 Z M 450.91602,105.10156 454.47656,116.05664 H 466.00586 L 456.68555,122.83203 460.24609,133.79492 450.91602,127.02539 441.60156,133.79492 445.1582,122.83203 435.83594,116.05664 H 447.35742 Z" />
<path class="msf_logo_blue" d="M 372.38281,2.5878906 C 358.28656,2.5878906 344.38281,11.627907 344.38281,27.863281 344.38281,38.460406 352.06438,44.196813 361.20312,45.945312 L 365.96875,46.820312 C 368.105,47.306688 371.21289,47.596702 371.21289,50.611328 371.21289,53.722703 367.52125,54.695313 365.1875,54.695312 360.035,54.695312 353.42539,53.237281 349.24414,50.222656 348.46914,49.736281 348.17578,50.416016 348.17578,50.416016 L 342.53711,65.582031 C 342.14836,66.846156 343.02539,67.234375 343.02539,67.234375 350.12039,70.832463 359.16391,72.970703 366.94141,72.970703 380.93766,72.970703 395.03516,64.902266 395.03516,48.666016 395.03516,37.097141 387.84313,31.458954 377.82812,29.126953 L 372.57812,27.863281 C 370.73188,27.376906 367.81641,26.988812 367.81641,24.460938 367.81641,21.642058 370.82539,20.863281 372.86914,20.863281 377.73039,20.863281 382.49586,21.738777 386.38086,24.363281 386.38086,24.363281 386.86875,24.655297 387.15625,24.169922 L 392.70508,9.1015625 C 392.70508,9.1015625 392.89336,8.6153388 392.50586,8.3242188 386.28336,4.4355888 379.57656,2.5878906 372.38281,2.5878906 Z M 435.83789,2.5878906 C 416.39664,2.5878906 400.16016,16.779768 400.16016,37.681641 400.16016,57.512141 415.03289,72.875 435.83789,72.875 454.69664,72.875 471.51758,58.388172 471.51758,37.779297 471.51758,16.101548 454.40664,2.5878906 435.83789,2.5878906 Z M 3.3886719,4.6289062 C 3.0976569,4.6289062 2.9042969,4.8223644 2.9042969,5.1152344 V 70.054688 C 2.9042969,70.345697 3.0976569,70.541016 3.3886719,70.541016 H 23.125 C 23.418874,70.541016 23.611328,70.345698 23.611328,70.054688 V 42.056641 L 24,42.445312 38.873047,54.5 C 39.066922,54.69525 39.455094,54.69525 39.652344,54.5 L 48.011719,47.695312 56.761719,40.501953 V 70.054688 C 56.761719,70.345697 57.052625,70.541016 57.34375,70.541016 H 76.982422 C 77.277297,70.541016 77.5625,70.345698 77.5625,70.054688 V 5.1152344 C 77.5625,4.8223644 77.277297,4.6289062 76.982422,4.6289062 H 65.316406 C 65.025406,4.6289062 64.638125,4.8227919 64.34375,4.9199219 L 57.246094,10.851563 C 56.955594,11.044933 56.665594,11.33687 56.371094,11.53125 L 39.652344,26.306641 39.261719,26.695312 38.873047,26.306641 31.484375,19.697266 24,12.988281 C 23.708999,12.794411 23.418453,12.50338 23.220703,12.40625 L 18.652344,8.6152344 14.183594,4.9199219 C 13.888669,4.7255419 13.499996,4.6289062 13.208984,4.6289062 Z M 90.806641,4.6289062 C 90.397731,4.6472062 90.396484,4.7755394 90.396484,5.5058594 V 69.666016 C 90.396484,70.638666 90.397998,70.541016 91.367188,70.541016 H 112.85547 C 113.73135,70.541016 113.82422,70.443356 113.82422,69.666016 V 5.5058594 C 113.82422,4.7259794 113.73132,4.6289062 112.85547,4.6289062 H 91.367188 C 91.124877,4.6289062 90.942941,4.6228062 90.806641,4.6289062 Z M 127.13477,4.6289062 C 126.84377,4.6289062 126.64648,4.9203906 126.64648,5.2128906 V 28.15625 28.738281 29.224609 69.957031 C 126.64648,70.249506 126.84377,70.541016 127.13477,70.541016 H 146.87109 C 147.15859,70.541016 147.35547,70.249506 147.35547,69.957031 V 41.667969 L 163.09961,56.154297 178.46094,70.152344 C 178.65593,70.346194 179.1443,70.541016 179.43555,70.541016 H 180.99023 181.47852 181.96289 182.64258 183.13086 183.71094 191.19727 C 191.48852,70.541016 191.68359,70.249506 191.68359,69.957031 V 5.1152344 C 191.68359,4.8223644 191.48852,4.6289062 191.19727,4.6289062 H 171.46484 C 171.17359,4.6289062 170.97852,4.8223644 170.97852,5.1152344 V 33.597656 L 170.58984,33.308594 155.12891,19.115234 139.67383,5.0195312 C 139.48008,4.8237812 139.09383,4.6289062 138.79883,4.6289062 Z M 204.87109,4.6289062 C 204.57984,4.6289062 204.38086,4.9203906 204.38086,5.2128906 V 28.15625 28.738281 29.224609 69.957031 C 204.38086,70.249506 204.57984,70.541016 204.87109,70.541016 H 224.60156 C 224.89281,70.541016 225.08984,70.249506 225.08984,69.957031 V 41.667969 L 240.83594,56.154297 256.19727,70.152344 C 256.39227,70.346194 256.8787,70.541016 257.16992,70.541016 H 258.72461 259.21289 259.69727 260.37695 260.86523 261.44727 268.93359 C 269.22359,70.541016 269.41797,70.249506 269.41797,69.957031 V 5.1152344 C 269.41797,4.8223644 269.22359,4.6289062 268.93359,4.6289062 H 249.19922 C 248.90797,4.6289062 248.71484,4.8223644 248.71484,5.1152344 V 33.597656 L 248.32617,33.308594 232.86523,19.115234 217.41016,5.0195312 C 217.21641,4.8237812 216.82445,4.6289062 216.5332,4.6289062 Z M 282.625,4.6289062 C 281.45875,4.6289062 281.55273,4.7250625 281.55273,5.6015625 V 69.179688 C 281.55273,70.346711 281.65264,70.541016 282.72266,70.541016 H 332.00586 C 332.97961,70.541016 333.07615,70.34671 333.07617,69.179688 V 54.597656 C 333.07616,53.334031 333.07586,53.333984 332.00586,53.333984 H 304.01367 V 45.167969 H 330.45117 C 331.52492,45.167969 331.61914,44.973219 331.61914,43.902344 V 31.167969 C 331.61914,30.000969 331.52492,29.808594 330.45117,29.808594 H 304.01367 V 21.251953 H 331.13477 C 332.10727,21.251953 332.30273,20.960958 332.30273,19.892578 V 5.9902344 C 332.30273,4.7259844 332.20474,4.6289062 331.13477,4.6289062 Z M 560.97852,4.6289062 C 560.78602,4.6289062 560.49258,4.8223644 560.29883,5.1152344 L 529.67578,69.275391 C 529.09453,70.151366 529.28805,70.541016 529.9668,70.541016 H 549.89844 C 551.25969,70.541016 551.35234,70.345709 551.83984,69.568359 553.10484,67.139184 554.1757,65.19425 555.43945,62.375 H 579.74219 C 581.00595,65.19425 582.17219,67.139184 583.33594,69.568359 583.82344,70.345709 583.92195,70.541016 585.2832,70.541016 H 605.11523 C 605.89523,70.541016 606.08836,70.151366 605.50586,69.275391 L 575.07422,5.40625 574.97656,5.2128906 574.88086,5.0195312 C 574.78336,4.8237812 574.49239,4.6289062 574.20117,4.6289062 Z M 475.68945,4.7265625 C 474.90945,4.7265625 474.91016,4.8233388 474.91016,5.6992188 V 22.126953 C 474.91016,22.710459 474.9093,22.808594 475.5918,22.808594 L 493.28516,22.710938 V 69.666016 C 493.28516,70.638666 493.28415,70.541016 494.25781,70.541016 H 515.35352 C 516.22602,70.541016 516.32227,70.443356 516.32227,69.666016 V 22.710938 L 533.43555,22.808594 C 534.01805,22.808594 534.11523,22.710459 534.11523,22.126953 V 5.6992188 C 534.11523,4.8233388 534.01863,4.7265625 533.33984,4.7265625 Z M 436.23633,19.154297 440.41602,31.992188 H 453.91406 L 442.99219,39.929688 447.16211,52.769531 436.23633,44.837891 425.31836,52.769531 429.49023,39.929688 418.56641,31.992188 H 432.06641 Z M 567.58398,23.447266 570.84961,33.492188 H 581.41406 L 572.86719,39.703125 576.13086,49.753906 567.58398,43.548828 559.03711,49.753906 562.29883,39.703125 553.75586,33.492188 H 564.31445 Z M 675.81641,125.86133 C 673.9256,125.84345 672.94922,126.01953 672.94922,126.01953 V 126.00977 C 671.66214,126.18935 670.42611,126.41678 669.32031,126.66602 663.46572,127.96864 658.92467,130.1284 654.78125,132.80469 650.89819,135.29513 647.29645,138.23364 642.9375,139.98633 639.41308,141.39721 635.14752,142.66294 631.11719,143.02344 618.64583,144.13545 615.88144,136.2304 607.01367,132.10547 601.11273,129.78505 594.21219,133.90341 592.91016,134.73633 L 592.99609,134.87109 C 596.48244,139.09405 598.07111,142.14411 601.48242,146.18164 606.10446,150.88017 613.43019,154.06373 621.13086,152.71094 628.82205,151.34968 635.05531,147.03985 641.66797,143.70312 648.22881,140.40908 655.24074,136.50636 662.85547,135.32617 669.70677,134.25083 677.16984,137.232 684.37695,137.71875 692.59845,138.27421 701.20376,134.93774 707.81641,131.625 702.38994,132.44633 696.98802,130.82457 692.63867,129.2832 L 692.625,129.29297 C 684.66593,126.46163 678.97398,125.89113 675.82227,125.86133 Z" />
</svg>
