<?xml version="1.0" encoding="UTF-8"?>
<svg xmlns="http://www.w3.org/2000/svg" xmlns:xlink="http://www.w3.org/1999/xlink" version="1.1" id="Capa_1" x="0px" y="0px" viewBox="0 0 93.8 76" style="enable-background:new 0 0 93.8 76;" xml:space="preserve">
<style type="text/css">
	.st0{fill:#DA1A32;}
	.st1{fill:#CF9C51;}
</style>
<path id="Path_142" class="st0" d="M39.5,8.6c1.8,0,3.6,0.6,5,1.7c1.7-2.1,3.4-8.6-4.9-6.2c-8.3-2.4-6,4-4.2,6.1  C36.4,9.2,37.9,8.6,39.5,8.6z"></path>
<path id="Path_143" class="st1" d="M47.4,25.5l-3.5,6.2h-7.1l-3.5-6.2c0.9,0.1,1.7,0.5,2.3,1c0.3,0.3,1.4,1.7,1.4,1.7  c-0.2,0.3-0.3,0.6-0.4,0.9c0,0.7,0.5,1.2,1.2,1.2c0.7,0,1.2-0.5,1.2-1.2l0,0c0-0.5-0.3-1-0.8-1.1c0-0.5,0.7-1,1.1-1  c0.1-1,0.4-1.9,1-2.8c0.6,0.8,0.9,1.8,1,2.8c0.4,0,1.1,0.4,1.1,1c-0.5,0.1-0.8,0.6-0.8,1.1c0,0.7,0.5,1.2,1.2,1.2  c0.7,0,1.2-0.5,1.2-1.2l0,0c0-0.3-0.1-0.7-0.3-0.9c0,0,1.1-1.4,1.4-1.7C45.7,25.9,46.5,25.6,47.4,25.5z M16,9.5V6.8H0.2v2.7  c0,1.6-0.1,3.3-0.2,4.9h0.5c0.3-2.8,0.9-4.2,2.2-4.2h3.5v18.4c0,1.9-0.9,2.4-1.7,2.4v0.7h7.4v-0.7c-0.8,0-1.7-0.5-1.7-2.4V10.2h3.3  c1.4,0,2,1.4,2.2,4.2h0.5C16.1,12.8,16,11.1,16,9.5z M48.9,9.1v19.1c0,1.8-0.5,2.5-1.5,2.8v0.7h7.1v-0.7c-1.5-0.4-1.7-0.9-1.7-2.3  V10.2h1.6c2.3,0,4.3,1.1,4.3,4.6c0,3.2-1.6,4.9-4.3,4.9c-0.3,0-0.7-0.1-0.9-0.1s-0.4,0-0.4,0.4c0,0.8,1.9,1.8,3.2,1.8  c3.4,0,6.1-2.3,6.1-7.1c0-4.5-2-7.8-6.9-7.8h-7.8v0.7C48.6,7.5,48.9,8,48.9,9.1L48.9,9.1z M76.6,24.1H76c-0.4,3-1.2,4.1-2.9,4.1h-5  V9.6c0-1.1,0.2-2.1,1.5-2.1V6.8H63v0.7c0.9,0,1.2,0.5,1.2,1.6v20.2c0,1.1-0.3,1.6-1.2,1.6v0.7h13C76.1,29.1,76.3,26.6,76.6,24.1  L76.6,24.1z M91.6,24.3H91c-0.4,3.3-0.9,4-2.3,4h-6.1v-7.9h3.6c1.2,0,1.4,0.6,1.5,2h0.5c-0.1-0.9-0.2-2.6-0.2-3.7s0.1-2.7,0.2-3.7  h-0.5c-0.2,1.4-0.3,2-1.5,2h-3.6v-6.8h5.8c1.4,0,1.8,0.7,2,2.9h0.5c-0.1-2.1-0.2-4.2-0.2-6.3H77.5v0.8c0.9,0,1.2,0.6,1.2,1.6v20.1  c0,1.1-0.3,1.6-1.2,1.6v0.7h13.8C91.3,29.5,91.4,27.5,91.6,24.3L91.6,24.3z M10.4,57.5c-3.5,0-6-5-6-9.4c0-5.8,2.3-9.3,5.3-9.3  c2.2,0,3.9,1.7,4.4,4.9h0.5c-0.1-2.5-0.2-5-0.2-7.7c-1.4-0.7-2.9-1-4.4-1c-6.2,0-9.4,6.6-9.4,13.3s3.2,13.1,8.9,13.1  c2.1-0.1,4.1-1,5.5-2.6l0.3-4.2C14.2,56.3,12.4,57.3,10.4,57.5z M49.7,48.3c0,8.2-4,13.1-8.8,13.1c-5.3,0-8.5-6.5-8.5-13.6  c0-7.4,3.7-12.8,8.6-12.8C46.5,35.1,49.7,41.4,49.7,48.3z M45.8,50c0-4.5-1.2-11.1-5.2-11.1c-3.3,0-4.3,4.6-4.3,7.7  c0,4.5,1.4,11.2,5.2,11.2C44.2,57.7,45.8,54.2,45.8,50z M72.8,39c0.4-1.8,0.9-2.3,1.8-2.3S76,37,76,38.1v20.5c0,1.1-0.3,1.6-1.3,1.6  V61h5.6v-0.7c-0.8,0-1.7-0.2-1.7-2.2V41.2h0.1L88.2,61h3.1V38.3c0-1.1,0.3-1.6,1.3-1.6v-0.7H87v0.7c0.8,0,1.7,0.2,1.7,2.2v13.5l0,0  l-7.9-16.4c-0.9,0-1.9,0-2.7,0h-3.5c-1,0-5,0-6,0v0.8c0.8,0,1.4,0.1,1.4,1.3c-0.1,0.8-0.2,1.6-0.4,2.4l-2.8,13.9h-0.1L64.2,40  C64,39.4,64,38.7,64,38.1c0-1,0.5-1.4,1.7-1.4V36c-1.4,0-7,0-8.4,0v0.7c1.1,0,1.8,0.3,2.1,1.9l0.9,4.3l-2.6,11.3h-0.1L55,41.2  c-0.3-1.2-0.5-2.4-0.6-3.7c0-0.8,0.7-0.7,1.1-0.8v-0.7c-1.3,0-6,0-7.4,0v0.6c1,0.1,1.3,0.4,1.8,2.5l5,21.9h3.6l2.9-13.7h0.1  l2.8,13.7h3.5L72.8,39z M93.8,60c0,0.6-0.4,1-1,1l0,0c-0.3,0-0.5-0.1-0.7-0.3c-0.2-0.2-0.3-0.4-0.2-0.7c0-0.5,0.5-0.9,1-0.9  C93.4,59.1,93.8,59.5,93.8,60L93.8,60z M93.7,60c0-0.5-0.4-0.8-0.8-0.8c-0.5,0-0.8,0.4-0.8,0.8c0,0.2,0.1,0.4,0.2,0.6  c0.3,0.3,0.8,0.3,1.2,0c0,0,0,0,0,0l0,0C93.6,60.4,93.7,60.2,93.7,60L93.7,60z M93.3,60.5L93.3,60.5h-0.2v-0.1c0-0.1,0-0.2-0.1-0.2  c-0.1,0-0.1,0-0.2,0h-0.2v0.4h-0.2v-1.1h0.4c0.1,0,0.2,0,0.3,0c0.1,0,0.2,0.2,0.2,0.3c0,0.1,0,0.2-0.1,0.2c0,0-0.1,0-0.2,0  c0.1,0,0.1,0,0.2,0.1c0,0,0.1,0.1,0.1,0.2v0.2L93.3,60.5z M93.1,59.8c0-0.1,0-0.1-0.1-0.2c-0.1,0-0.1,0-0.2,0h-0.2V60h0.2  c0.1,0,0.1,0,0.2,0C93.1,60,93.1,59.9,93.1,59.8L93.1,59.8z M35.6,9.4c0,0.3,0.2,0.5,0.5,0.5s0.5-0.2,0.5-0.5c0-0.3-0.2-0.5-0.5-0.5  C35.8,8.9,35.6,9.1,35.6,9.4C35.6,9.4,35.6,9.4,35.6,9.4z M38,8.4c-0.1,0.3,0.1,0.6,0.3,0.7C38.6,9.2,38.9,9,39,8.7S39,8.2,38.7,8.1  c0,0,0,0,0,0C38.4,8,38.1,8.1,38,8.4z M40.7,9c0.2,0.2,0.6,0.1,0.7-0.1c0.2-0.2,0.1-0.6-0.1-0.7C41.1,8,40.8,8,40.6,8.2l0,0  C40.4,8.5,40.5,8.8,40.7,9L40.7,9z M43.1,8.9c-0.3,0.2-0.3,0.5-0.2,0.7c0.2,0.3,0.5,0.3,0.7,0.2C44,9.7,44,9.3,43.9,9.1c0,0,0,0,0,0  l0,0C43.7,8.8,43.4,8.8,43.1,8.9C43.2,8.9,43.2,8.9,43.1,8.9L43.1,8.9z M34,8.5c-0.2,0.1,0.5,1.6,0.7,1.9c0.1,0.3,0.5,0.4,0.7,0.2  c0.3-0.1,0.3-0.5,0.2-0.7c0,0,0,0,0,0c0,0,0-0.1-0.1-0.1C35.4,9.6,34.2,8.3,34,8.5z M36.7,7c-0.2,0.1,0,1.7,0,2  c0.1,0.3,0.3,0.5,0.6,0.4c0.3-0.1,0.5-0.3,0.4-0.6c0,0,0,0,0,0c0,0,0-0.1,0-0.1C37.8,8.5,37,6.9,36.7,7L36.7,7z M41.8,8.6  c-0.1,0.3,0,0.6,0.2,0.7c0.3,0.1,0.6,0,0.7-0.2c0,0,0-0.1,0.1-0.1c0.1-0.1,0.4-1.7,0.2-1.9c0.3,0.1,0.6-0.1,0.7-0.3  c0.1-0.3,0-0.6-0.3-0.7c0,0,0,0,0,0c-0.3-0.1-0.6,0.1-0.6,0.4C42.7,6.6,42.8,6.9,43,7C42.7,7,42,8.3,41.8,8.6L41.8,8.6z M44,10.2  c0.1,0.3,0.4,0.4,0.7,0.3c0,0,0,0,0,0c0.1,0,0.2-0.1,0.2-0.2c0.1-0.1,1-1.6,0.8-1.8s-1.4,0.9-1.7,1.1C44,9.8,43.9,10,44,10.2z   M33.8,7.1c-0.4,0-0.7,0.3-0.7,0.7c0,0.4,0.3,0.7,0.7,0.7c0.4,0,0.7-0.3,0.7-0.7v0l0,0C34.5,7.4,34.2,7.1,33.8,7.1z M33.4,6.9  c0.4,0,0.7-0.2,0.7-0.6c0-0.4-0.2-0.7-0.6-0.7c-0.1,0-0.1,0-0.2,0c-0.4,0-0.7,0.2-0.7,0.6c0,0.4,0.2,0.7,0.6,0.7  C33.3,6.9,33.3,6.9,33.4,6.9z M33.8,5.5c0.4,0,0.7-0.3,0.7-0.7s-0.3-0.7-0.7-0.7c-0.4,0-0.7,0.3-0.7,0.7v0  C33.1,5.2,33.4,5.5,33.8,5.5z M35,4.6c0.4,0,0.7-0.3,0.7-0.7S35.4,3.3,35,3.3c-0.4,0-0.7,0.3-0.7,0.7c0,0,0,0,0,0l0,0  C34.3,4.3,34.6,4.6,35,4.6z M36.4,4.3c0.4,0,0.7-0.3,0.7-0.7S36.8,3,36.4,3c-0.4,0-0.7,0.3-0.7,0.7c0,0,0,0,0,0l0,0  C35.8,4,36,4.3,36.4,4.3z M37.9,4.5c0.4,0,0.7-0.3,0.7-0.6c0-0.4-0.3-0.7-0.6-0.7s-0.7,0.3-0.7,0.6c0,0,0,0,0,0l0,0  C37.2,4.2,37.5,4.5,37.9,4.5C37.9,4.5,37.9,4.5,37.9,4.5L37.9,4.5L37.9,4.5z M46.2,7.7c0-0.4-0.3-0.7-0.7-0.7  c-0.4,0-0.7,0.3-0.7,0.7s0.3,0.7,0.7,0.7l0,0C45.9,8.4,46.2,8.1,46.2,7.7z M45.4,6.3c0,0.4,0.3,0.7,0.7,0.7c0.4,0,0.7-0.3,0.7-0.6  c0-0.4-0.3-0.7-0.7-0.7c0,0,0,0,0,0l0,0C45.6,5.6,45.3,5.9,45.4,6.3C45.3,6.3,45.3,6.3,45.4,6.3z M45.6,5.5c0.4,0,0.7-0.3,0.7-0.7  S46,4.2,45.6,4.2c-0.4,0-0.7,0.3-0.7,0.7v0l0,0C44.9,5.2,45.2,5.5,45.6,5.5L45.6,5.5z M44.4,4.6c0.4,0,0.7-0.3,0.7-0.7  s-0.3-0.7-0.7-0.7c-0.4,0-0.7,0.3-0.7,0.7c0,0,0,0,0,0l0,0C43.8,4.3,44,4.6,44.4,4.6z M43,4.3c0.4,0,0.7-0.3,0.7-0.7S43.4,3,43,3  c-0.4,0-0.7,0.3-0.7,0.7c0,0,0,0,0,0l0,0C42.3,4,42.6,4.3,43,4.3z M40.9,3.9c0,0.4,0.3,0.7,0.7,0.7c0.4,0,0.7-0.3,0.7-0.7  s-0.3-0.7-0.7-0.7c0,0,0,0,0,0l0,0C41.2,3.2,40.9,3.5,40.9,3.9z M36.5,6C36.2,6,36,6.2,36,6.5c0,0,0,0,0,0c0,0.3,0.2,0.5,0.5,0.5  c0.3,0,0.5-0.2,0.5-0.5C37,6.2,36.8,6,36.5,6C36.5,6,36.5,6,36.5,6z M35.2,5.5c0,0.3,0.3,0.5,0.5,0.5c0.3,0,0.5-0.2,0.5-0.5  c0,0,0,0,0,0C36.2,5.2,36,5,35.7,5C35.4,5,35.2,5.2,35.2,5.5L35.2,5.5z M36.3,5c0,0.3,0.3,0.5,0.6,0.5c0.2,0,0.4-0.2,0.5-0.5  c0-0.3-0.2-0.5-0.5-0.5C36.5,4.5,36.3,4.7,36.3,5C36.3,5,36.3,5,36.3,5L36.3,5z M38,4.8c-0.3,0-0.5,0.2-0.5,0.5  c0,0.3,0.2,0.5,0.5,0.5c0.3,0,0.5-0.2,0.5-0.5c0,0,0,0,0,0l0,0C38.5,5.1,38.3,4.8,38,4.8C38,4.8,38,4.8,38,4.8z M43.4,4.8  c-0.3,0-0.5,0.3-0.5,0.6c0,0.3,0.3,0.5,0.6,0.5c0.3,0,0.5-0.3,0.5-0.6C44,5,43.7,4.8,43.4,4.8C43.4,4.8,43.4,4.8,43.4,4.8z M41.8,5  c0,0.3,0.3,0.5,0.6,0.5c0,0,0,0,0,0c0.3,0,0.5-0.3,0.5-0.6c0-0.3-0.3-0.5-0.6-0.5l0,0C42,4.4,41.8,4.7,41.8,5z M41.2,5.7  c0.3,0,0.5-0.3,0.5-0.6c0-0.3-0.3-0.5-0.6-0.5c-0.3,0-0.5,0.3-0.5,0.6C40.7,5.6,40.9,5.8,41.2,5.7L41.2,5.7z M39.7,3.4  c-0.5,0-0.9,0.4-0.9,0.9c0,0.4,0.3,0.8,0.7,0.8C39.2,5.3,38.9,5.6,39,6c0,0,0,0,0,0c0.1,0.3,0.3,0.5,0.7,0.5h0  c-0.2,0.1-0.5,1.6-0.6,1.9c0,0.3,0.2,0.5,0.5,0.5c0.2,0,0.5-0.2,0.5-0.4V8.4c0-0.2-0.2-1.8-0.5-1.9c0.4-0.1,0.6-0.4,0.5-0.8  c0-0.3-0.2-0.5-0.5-0.5c0.5-0.1,0.8-0.5,0.7-1C40.5,3.7,40.1,3.4,39.7,3.4L39.7,3.4z M39.3,2c0.1,0,0.1,0.1,0.2,0.1  C39.2,2.2,39,2.5,39,2.9c0,0,0,0,0,0c0.1,0.4,0.4,0.6,0.8,0.5c0.4-0.1,0.6-0.4,0.5-0.8c-0.1-0.3-0.3-0.5-0.5-0.5  c0.1,0,0.2-0.1,0.3-0.2c0-0.1,0-0.2,0.1-0.2c0,0,0,0,0,0c0.1,0,0.2,0,0.2,0.1c0,0.1,0,0.1-0.1,0.2c0.2,0.2,0.6,0.1,0.7-0.1  s0.1-0.6-0.1-0.7C40.8,1,40.5,1,40.3,1.2l0,0c0,0.1,0,0.2-0.1,0.2c-0.1,0-0.2,0-0.2-0.1l0,0c0-0.1,0-0.1,0-0.2  C39.8,1,39.4,1,39.3,1.3S39.1,1.8,39.3,2L39.3,2z M39.3,0.9c0.2,0.2,0.6,0.2,0.8-0.1c0.2-0.2,0.1-0.6-0.1-0.7  c-0.2-0.2-0.6-0.1-0.7,0.1C39.1,0.4,39.1,0.8,39.3,0.9L39.3,0.9L39.3,0.9z M38.3,2c0.2,0.2,0.5,0.1,0.7-0.1c0.2-0.2,0.1-0.6-0.1-0.7  c0,0,0,0,0,0C38.7,1,38.4,1,38.2,1.2c0,0,0,0,0,0C38,1.5,38.1,1.8,38.3,2z M24.6,31.7V31c-1.5-0.4-1.7-0.9-1.7-2.3V10.2h1.6  c2.3,0,4.3,1.1,4.3,4.6c0,3.2-1.6,4.9-4.3,4.9c-0.4,0-0.7-0.1-0.9-0.1s-0.4,0-0.4,0.4c0,0.1,0,0.2,0.1,0.2l0,0l0,0c0,0,0,0,0,0.1  c1.7,3.5,4.2,7.3,5.7,11.5h5.5v-0.9c-0.7,0.1-1.2-0.4-1.7-1.5l-4.5-8c2.4-0.7,4.2-3,4.2-6.8c0-4.5-2-7.7-6.9-7.7h-8.1v0.7  c0.8,0,1.5,0.6,1.5,1.4c0,0,0,0.1,0,0.1C19,9,19,9,19,9.1v19.1c0,1.8-0.5,2.5-1.5,2.8v0.7L24.6,31.7z M21.4,57.9V39.4h1.6  c2.3,0,4.3,1,4.3,4.5c0,3.2-1.6,4.9-4.3,4.9c-0.4,0-0.7-0.1-0.9-0.1s-0.4,0-0.4,0.3c0,0.1,0,0.2,0.1,0.2l0,0l0,0v0.1  c1.7,3.5,4.2,7.3,5.8,11.5H33V60c-0.7,0.1-1.2-0.4-1.7-1.5l-4.5-8c2.5-0.7,4.2-3,4.2-6.8c0-4.5-2-7.7-6.9-7.7H16v0.7  c0.8,0,1.5,0.6,1.5,1.4c0,0,0,0,0,0c0,0.1,0,0.2,0,0.2v19.1c0,1.8-0.5,2.5-1.5,2.8v0.7h7.1v-0.7C21.6,59.8,21.4,59.3,21.4,57.9z   M40.1,11.6c0.5,0,1.9,0,1.9,1s-0.8,1-1,1.3s0,0.5,0.3,0.3c0.5-0.3,1-0.4,1.5-0.3c1.5,0,3.3,1,3.3,2.6c-0.1,1.5-1.1,2.9-2.5,3.4  c-2.8,1.2-0.8,1.3-0.2,0.6c0.6-0.4,1.4-0.2,1.8,0.4c0.4,0.6,0.2,1.4-0.4,1.8c-0.5,0.3-1.2,0.3-1.6-0.2c-1-0.3-2.1-0.4-3.1-0.4l0,0  c-1-0.1-2.1,0.1-3.1,0.4c-0.5,0.5-1.3,0.5-1.8,0c-0.5-0.5-0.5-1.3,0-1.8l0,0c0.4-0.4,1.1-0.5,1.7-0.2c0.6,0.7,2.6,0.6-0.2-0.6  c-1.5-0.5-2.5-1.9-2.6-3.4c0-1.7,1.8-2.6,3.3-2.6c0.5,0,1,0.1,1.5,0.4c0.3,0.2,0.5,0,0.3-0.3s-1-0.3-1-1.3S39.6,11.6,40.1,11.6  L40.1,11.6L40.1,11.6z M39.4,17.2c0-0.9-0.8-1.6-1.7-1.6c0,0,0,0,0,0h-0.1c-0.8,0-1.6,0.1-1.6,1.3c0,0.8,0.4,1.5,1.1,1.9  c0.6,0.3,1,0.9,1,1.5c0,0.4,0.4,1.1,0.8,0.3C39.4,19.5,39.5,18.3,39.4,17.2z M40.7,17.2c-0.1,1.2,0.1,2.3,0.5,3.4  c0.5,0.8,0.8,0.2,0.8-0.3c0-0.7,0.4-1.3,1-1.5c0.7-0.4,1.1-1.1,1-1.9c0-1.1-0.8-1.3-1.6-1.3c-0.9-0.1-1.7,0.6-1.8,1.5  C40.7,17.1,40.7,17.1,40.7,17.2L40.7,17.2z M8.7,75.7L8.7,75.7c0,0.1,0,0.2-0.1,0.2c0,0-0.1,0-0.1,0.1H7.8c-0.1,0-0.2-0.1-0.2-0.2  l-0.4-1H4.6l-0.4,1c0,0.1-0.1,0.2-0.2,0.2H3.2c-0.1,0-0.2,0-0.2-0.1c0,0,0,0,0-0.1l0,0v-0.1l2-5.4C5,70.1,5.2,70,5.3,70h0.9  c0.1,0,0.3,0.1,0.3,0.2L8.7,75.7z M6.8,73.7l-0.9-2.6l-1,2.6H6.8z M15,74.9h-2.6v-4.7c0-0.1-0.1-0.2-0.2-0.2h-0.8  c-0.1,0-0.1,0-0.1,0.1c0,0,0,0.1,0,0.1v5.5c0,0.1,0.1,0.2,0.2,0.2c0,0,0,0,0,0H15c0.1,0,0.1,0,0.1-0.1c0,0,0.1-0.1,0.1-0.1v-0.6  c0-0.1,0-0.1-0.1-0.1C15.1,74.9,15.1,74.9,15,74.9z M22.9,70h-0.8c-0.1,0-0.2,0-0.2,0.2L21.2,74l-0.8-2.5c0-0.1-0.1-0.1-0.1-0.2  c-0.1,0-0.1-0.1-0.2-0.1h-0.5c-0.1,0-0.2,0.1-0.3,0.2L18.7,74L18,70.2c0-0.1,0-0.1-0.1-0.1c-0.1,0-0.1,0-0.2,0H17  c-0.1,0-0.2,0.1-0.2,0.2c0,0,0,0,0,0l0,0v0.1l1,5.4c0,0.1,0.2,0.3,0.3,0.2h0.6c0.1,0,0.3-0.1,0.3-0.2l1-2.9l1,2.8  c0,0.1,0.2,0.2,0.3,0.2h0.6c0.1,0,0.2,0,0.2-0.1c0.1,0,0.1-0.1,0.1-0.2l1-5.4v-0.1C23.1,70.1,23.1,70,22.9,70C23,70,22.9,70,22.9,70  L22.9,70z M30.6,75.7L30.6,75.7c0,0.1,0,0.2,0,0.2c0,0-0.1,0-0.1,0.1h-0.8c-0.1,0-0.2-0.1-0.2-0.2l-0.4-1h-2.5l-0.4,1  c0,0.1-0.1,0.2-0.2,0.2h-0.8c-0.1,0-0.2-0.1-0.2-0.2c0,0,0,0,0,0l0,0v-0.1l2-5.5c0-0.1,0.2-0.2,0.3-0.2h0.9c0.1,0,0.3,0.1,0.3,0.2  L30.6,75.7z M28.8,73.8l-1-2.6l-1,2.6L28.8,73.8z M36.8,70H36c-0.1,0-0.1,0-0.2,0c0,0-0.1,0.1-0.1,0.1l-1.4,2.4l-1.4-2.4  c0-0.1-0.2-0.2-0.3-0.2h-0.7c0,0-0.1,0-0.1,0c0,0-0.1,0.1-0.1,0.1c0,0,0,0.1,0,0.1l2,3.6v1.9c0,0.1,0.1,0.2,0.2,0.2h0.8  c0.1,0,0.2-0.1,0.2-0.2v-1.9l2-3.5c0.1-0.1,0.1-0.2,0-0.2C36.9,69.9,36.8,69.9,36.8,70L36.8,70z M42.6,72.9  c-0.4-0.2-0.8-0.3-1.2-0.4c-0.3-0.1-0.6-0.2-0.8-0.2c-0.2-0.1-0.3-0.2-0.4-0.3c-0.1-0.1-0.1-0.2-0.1-0.4c0-0.2,0.1-0.4,0.3-0.5  c0.5-0.2,1-0.2,1.4,0c0.2,0.1,0.3,0.3,0.3,0.5c0,0.1,0.2,0.2,0.3,0.2h0.8c0.1,0,0.2-0.1,0.2-0.2c0-0.3-0.1-0.5-0.3-0.7  c-0.2-0.3-0.5-0.5-0.8-0.6c-0.4-0.2-0.8-0.3-1.2-0.2c-0.4,0-0.8,0.1-1.2,0.2c-0.3,0.1-0.6,0.3-0.8,0.6c-0.2,0.3-0.3,0.6-0.3,0.9  c0,0.4,0.2,0.8,0.5,1.1c0.4,0.3,0.9,0.5,1.5,0.6c0.4,0.1,0.7,0.2,0.9,0.3c0.2,0.1,0.3,0.1,0.5,0.3c0.1,0.1,0.2,0.2,0.2,0.4  c0,0.2-0.1,0.4-0.3,0.6C41.7,75,41.4,75,41.1,75c-0.3,0-0.6-0.1-0.8-0.2c-0.2-0.1-0.3-0.3-0.4-0.5c0,0-0.1-0.1-0.1-0.1  c-0.1,0-0.1,0-0.2,0h-0.8c-0.1,0-0.1,0-0.1,0.1c0,0,0,0.1,0,0.1c0,0.3,0.1,0.6,0.3,0.8c0.2,0.3,0.5,0.5,0.8,0.6  c0.4,0.2,0.9,0.2,1.3,0.2c0.4,0,0.9-0.1,1.3-0.2c0.3-0.1,0.6-0.3,0.8-0.6c0.2-0.3,0.3-0.6,0.3-1c0-0.3-0.1-0.6-0.2-0.8  C43.2,73.2,43,73,42.6,72.9L42.6,72.9z M56.6,73.3c0.2,0.2,0.3,0.5,0.2,0.8c0,0.5-0.2,0.9-0.5,1.3c-0.4,0.3-1,0.5-1.5,0.5h-2.5  c-0.1,0-0.2-0.1-0.2-0.2l0,0v-5.5c0-0.1,0-0.1,0.1-0.2c0,0,0.1-0.1,0.2-0.1h2.5c0.5,0,1.1,0.1,1.5,0.4c0.3,0.3,0.5,0.7,0.5,1.2  c0,0.3-0.1,0.5-0.2,0.8c-0.1,0.2-0.3,0.3-0.5,0.4C56.2,72.9,56.4,73.1,56.6,73.3L56.6,73.3z M53.3,72.4h1.3c0.2,0,0.5-0.1,0.7-0.2  c0.2-0.1,0.2-0.3,0.2-0.6c0-0.2-0.1-0.4-0.2-0.6c-0.2-0.1-0.4-0.2-0.7-0.2h-1.3L53.3,72.4z M55.6,74.2c0-0.2-0.1-0.5-0.2-0.6  c-0.2-0.2-0.4-0.3-0.7-0.2h-1.4V75h1.4c0.3,0,0.5-0.1,0.7-0.2C55.5,74.6,55.6,74.4,55.6,74.2L55.6,74.2z M63.4,74.9h-2.8v-1.5h2.6  c0.1,0,0.1,0,0.2-0.1c0,0,0.1-0.1,0.1-0.1v-0.5c0-0.1-0.1-0.2-0.2-0.2h-2.6V71h2.8c0.1,0,0.1,0,0.2-0.1c0,0,0-0.1,0-0.1v-0.6  c0-0.1-0.1-0.2-0.2-0.2c0,0,0,0,0,0h-3.7c-0.1,0-0.1,0-0.2,0.1c0,0-0.1,0.1-0.1,0.2v5.5c0,0.1,0.1,0.2,0.2,0.2h3.8  c0.1,0,0.1,0,0.2-0.1c0,0,0.1-0.1,0.1-0.1v-0.6c0-0.1,0-0.1-0.1-0.2C63.5,75,63.5,75,63.4,74.9L63.4,74.9z M70.8,70H70  c-0.1,0-0.1,0-0.2,0c0,0-0.1,0.1-0.1,0.1l-1.4,2.4l-1.4-2.4c0-0.1-0.2-0.2-0.3-0.2h-0.8c0,0-0.1,0-0.1,0c0,0-0.1,0.1-0.1,0.1  c0,0,0,0.1,0,0.1l2,3.5v1.9c0,0.1,0.1,0.2,0.2,0.2h0.8c0,0,0.1,0,0.2,0c0,0,0.1-0.1,0.1-0.2v-1.9l2-3.6c0,0,0-0.1,0-0.1  C70.9,70,70.8,70,70.8,70L70.8,70L70.8,70z M77.6,72.2c0,0.3,0,0.6,0,0.7s0,0.4,0,0.7c0,0.6-0.2,1.3-0.7,1.7c-1.1,0.8-2.5,0.8-3.6,0  c-0.5-0.5-0.7-1.1-0.7-1.7c0-0.2,0-0.4,0-0.7s0-0.6,0-0.7c0-0.6,0.2-1.3,0.7-1.7c1.1-0.8,2.5-0.8,3.6,0C77.4,71,77.6,71.6,77.6,72.2  z M76.4,73c0-0.1,0-0.4,0-0.7c0-0.4-0.1-0.7-0.4-1c-0.5-0.5-1.3-0.5-1.8,0c-0.2,0.3-0.4,0.6-0.3,1c0,0.2,0,0.4,0,0.7s0,0.5,0,0.7  c0,0.4,0.1,0.7,0.3,1c0.5,0.5,1.3,0.5,1.8,0c0.2-0.3,0.4-0.6,0.3-1C76.4,73.3,76.4,73.1,76.4,73z M84.4,70h-0.7  c-0.1,0-0.1,0-0.2,0.1c0,0-0.1,0.1-0.1,0.2v3.7L81,70.1C80.9,70,80.9,70,80.8,70h-0.7c0,0-0.1,0-0.1,0c0,0,0,0.1,0,0.2v5.5  c0,0.1,0.1,0.2,0.2,0.2h0.7c0.1,0,0.1,0,0.1-0.1c0,0,0.1-0.1,0.1-0.1v-3.6l2.4,3.7c0.1,0.1,0.2,0.1,0.3,0.1h0.7  c0.1,0,0.2-0.1,0.2-0.2v-5.5C84.7,70.1,84.6,70,84.4,70C84.5,70,84.5,70,84.4,70L84.4,70L84.4,70z M92.2,72.3c0,0.3,0,0.6,0,0.7  s0,0.3,0,0.7c0,0.6-0.2,1.3-0.6,1.8c-0.5,0.4-1.2,0.6-1.9,0.6h-2.1c-0.1,0-0.2-0.1-0.2-0.2l0,0v-5.5c0-0.1,0-0.1,0.1-0.2  c0,0,0.1-0.1,0.2-0.1h2.1C91.3,70,92.1,70.7,92.2,72.3L92.2,72.3z M91,72.9c0-0.1,0-0.3,0-0.6c0.1-0.6-0.4-1.2-1-1.3  c-0.1,0-0.2,0-0.4,0h-1v4h1.1c0.4,0,0.7-0.1,1-0.3c0.2-0.3,0.3-0.6,0.3-1C91,73.3,91,73.1,91,72.9L91,72.9z"></path>
</svg>
